<svg xmlns="http://www.w3.org/2000/svg" viewBox="0 0 120 120" fill="none">
  <defs>
    <linearGradient id="goldGlow" x1="0%" y1="0%" x2="100%" y2="100%">
      <stop offset="0%" stop-color="#FDE68A" />
      <stop offset="50%" stop-color="#F59E0B" />
      <stop offset="100%" stop-color="#B45309" />
    </linearGradient>
    <linearGradient id="shieldBg" x1="50%" y1="0%" x2="50%" y2="100%">
      <stop offset="0%" stop-color="#1E1B4B" />
      <stop offset="100%" stop-color="#06080D" />
    </linearGradient>
  </defs>

  <rect width="120" height="120" rx="28" fill="#06080D" stroke="url(#goldGlow)" stroke-width="2" stroke-opacity="0.5"/>
  <circle cx="60" cy="60" r="52" stroke="#F59E0B" stroke-width="1.5" stroke-dasharray="8 6" stroke-opacity="0.4"/>
  <path d="M60 16 L90 28 C90 62 76 86 60 98 C44 86 30 62 30 28 Z" fill="url(#shieldBg)" stroke="url(#goldGlow)" stroke-width="3"/>
  <path d="M60 23 L83 33 C83 60 72 79 60 89 C48 79 37 60 37 33 Z" fill="none" stroke="#FCD34D" stroke-width="1.5" stroke-opacity="0.7"/>
  <line x1="32" y1="88" x2="74" y2="46" stroke="url(#goldGlow)" stroke-width="5" stroke-linecap="round"/>
  <line x1="32" y1="88" x2="74" y2="46" stroke="#FFFFFF" stroke-width="1.5" stroke-linecap="round" opacity="0.8"/>
  <g transform="rotate(-45 74 46)">
    <rect x="62" y="38" width="24" height="16" rx="4" fill="#0F172A" stroke="url(#goldGlow)" stroke-width="2"/>
    <rect x="65" y="38" width="3" height="16" fill="#FCD34D"/>
    <rect x="80" y="38" width="3" height="16" fill="#FCD34D"/>
  </g>
</svg>
